<?xml version="1.0" standalone="no"?>
<!DOCTYPE svg PUBLIC "-//W3C//DTD SVG 20010904//EN"
 "http://www.w3.org/TR/2001/REC-SVG-20010904/DTD/svg10.dtd">
<svg version="1.0" xmlns="http://www.w3.org/2000/svg"
 width="256.000000pt" height="256.000000pt" viewBox="0 0 256.000000 256.000000"
 preserveAspectRatio="xMidYMid meet">
<metadata>
Created by potrace 1.14, written by Peter Selinger 2001-2017
</metadata>
<g transform="translate(0.000000,256.000000) scale(0.100000,-0.100000)"
fill="#000000" stroke="none">
<path d="M1200 2519 c-15 -13 -26 -17 -28 -9 -3 8 -9 7 -20 -2 -13 -11 -15
-11 -8 2 4 8 0 6 -8 -4 -9 -12 -16 -15 -16 -7 0 8 -11 12 -33 10 -18 -2 -39 1
-46 5 -9 6 -12 5 -8 -1 3 -5 -19 -9 -56 -8 -34 1 -70 -2 -81 -8 -13 -6 -16 -6
-12 2 4 6 3 11 -3 11 -5 0 -13 -5 -16 -10 -4 -7 -13 -6 -27 1 -15 8 -19 8 -14
0 4 -6 2 -11 -3 -11 -6 0 -11 4 -11 9 0 5 -17 3 -37 -5 -21 -7 -37 -17 -36
-21 1 -5 -16 -9 -37 -8 -34 1 -37 -1 -27 -14 9 -11 9 -13 0 -8 -15 9 -24 -6
-25 -43 -1 -17 -6 -30 -12 -30 -6 0 -5 -4 2 -9 20 -12 19 -17 -8 -40 -14 -11
-21 -20 -17 -21 4 0 3 -9 -3 -19 -5 -11 -6 -22 -2 -25 5 -3 9 1 10 9 1 8 3 21
4 29 1 8 7 12 14 9 11 -4 10 -8 -1 -20 -9 -8 -13 -18 -10 -23 3 -5 1 -11 -5
-15 -15 -9 -12 -28 3 -19 6 4 4 -1 -5 -12 -14 -16 -15 -23 -6 -32 7 -7 8 -12
2 -12 -14 0 -14 -30 0 -31 6 0 2 -4 -9 -9 -14 -6 -15 -9 -5 -10 10 -1 9 -4 -5
-10 -16 -7 -17 -9 -3 -9 13 -1 16 -10 15 -40 -1 -21 -6 -36 -11 -33 -5 3 -6
-3 -2 -14 4 -10 3 -15 -1 -10 -9 9 -12 57 -3 51 3 -2 7 5 7 16 1 15 -1 17 -10
7 -16 -18 -19 -80 -4 -90 8 -5 8 -8 1 -8 -11 0 -16 -56 -16 -172 0 -21 -4 -38
-9 -38 -5 0 -9 -5 -9 -11 0 -5 4 -8 8 -5 5 3 9 -1 9 -9 0 -8 -4 -12 -9 -9 -4
3 -8 0 -8 -6 0 -6 -3 -9 -8 -6 -4 2 -8 -10 -9 -27 -1 -24 1 -27 9 -14 5 9 14
17 20 17 9 0 9 -3 0 -12 -14 -14 -16 -32 -4 -24 5 3 9 -1 9 -8 0 -7 -6 -13
-13 -13 -7 0 -10 5 -7 11 3 6 2 7 -2 3 -5 -4 -10 -14 -11 -23 -2 -11 4 -13 19
-10 12 3 16 3 10 0 -7 -3 -13 -13 -13 -22 0 -15 -2 -15 -10 -2 -6 9 -9 -164
-9 -475 0 -373 3 -491 12 -497 9 -6 9 -8 0 -8 -7 0 -13 -5 -13 -11 0 -15 26
-39 35 -31 4 4 5 0 3 -8 -2 -8 -7 -18 -13 -22 -6 -5 -4 -8 5 -8 13 0 13 -1 0
-10 -11 -7 -12 -10 -2 -10 10 0 9 -4 -3 -16 -9 -9 -14 -23 -11 -30 3 -8 0 -14
-7 -14 -7 -1 -3 -6 8 -13 24 -15 31 -52 13 -75 -9 -11 -10 -14 0 -8 9 5 12 -5
12 -41 0 -27 6 -55 13 -62 6 -8 7 -11 1 -8 -6 3 -11 0 -11 -8 0 -18 8 -19 27
-3 13 11 13 11 2 -1 -14 -17 -16 -35 -4 -27 5 3 9 -1 9 -9 0 -20 -7 -19 -23 3
-13 16 -13 16 -14 0 0 -10 5 -18 11 -18 5 0 7 -4 4 -10 -4 -6 1 -7 11 -3 14 5
16 2 12 -15 -4 -12 -1 -22 4 -22 7 0 7 -4 0 -13 -8 -9 -8 -17 0 -27 8 -12 8
-11 3 5 -6 20 -6 20 13 0 15 -15 17 -23 8 -34 -8 -11 -8 -13 2 -7 6 4 12 2 12
-3 0 -6 5 -11 11 -11 5 0 7 5 3 12 -5 7 -3 8 6 3 7 -5 34 -9 60 -10 26 -1 53
-5 60 -10 9 -5 11 -4 6 3 -4 7 -3 12 3 12 5 0 12 -6 14 -12 3 -7 6 -8 6 -2 1
11 52 10 72 -1 8 -5 10 -4 5 4 -6 8 1 10 25 6 18 -3 37 -9 42 -12 6 -3 7 -1 3
5 -9 15 -1 15 26 1 15 -8 19 -8 14 0 -9 14 36 10 46 -4 5 -7 8 -7 8 0 0 15
146 13 161 -3 7 -6 17 -12 23 -12 5 0 1 6 -10 14 -13 10 -14 14 -4 13 8 -2 20
-6 27 -10 6 -4 14 -1 16 5 4 10 8 9 16 -2 6 -8 11 -10 11 -5 0 7 33 10 85 10
82 0 85 1 85 22 0 21 10 28 33 24 5 -1 6 3 2 9 -3 6 -11 8 -16 5 -5 -4 -5 5 1
20 8 20 7 27 -5 31 -9 4 -15 19 -15 40 0 26 -5 37 -22 45 l-23 10 23 -5 c26
-5 30 10 4 18 -18 6 -23 29 -25 107 -1 22 -6 36 -14 36 -9 0 -10 -4 -3 -12 7
-9 7 -14 -2 -18 -9 -3 -14 8 -15 34 -1 28 2 37 10 32 9 -5 9 -3 1 8 -16 22
-18 90 -2 100 10 7 10 9 1 9 -7 0 -13 10 -13 23 0 18 2 19 10 7 8 -13 10 -12
10 3 0 9 -5 17 -11 17 -5 0 -7 5 -3 11 4 8 9 7 15 -2 5 -8 9 -9 10 -4 1 6 3
15 4 20 2 6 3 14 4 19 0 5 7 3 15 -3 10 -9 17 -7 27 6 13 16 12 17 -3 4 -12
-9 -18 -10 -18 -2 0 10 14 15 24 9 2 -2 13 6 25 16 12 11 24 16 28 13 3 -4 11
-2 18 3 8 7 12 5 12 -4 0 -7 -11 -12 -25 -12 -14 1 -27 -4 -29 -11 -4 -12 21
-12 33 0 4 4 14 1 22 -6 12 -9 14 -9 9 0 -8 13 30 39 40 29 4 -3 13 0 22 7 14
10 14 10 3 -5 -8 -9 -19 -15 -27 -12 -7 3 -16 0 -21 -7 -5 -9 -2 -10 9 -6 9 3
18 1 21 -6 3 -9 5 -9 5 1 1 6 8 12 17 12 9 0 12 -5 8 -12 -5 -9 -2 -9 9 1 9 7
17 9 17 4 0 -5 9 -9 19 -9 11 0 17 5 13 11 -3 5 2 4 11 -4 14 -11 17 -11 17 0
0 9 3 10 8 4 8 -12 82 -15 82 -4 0 4 8 6 18 4 9 -1 12 0 5 2 -6 2 -14 11 -17
19 -3 8 -2 12 4 9 5 -3 7 7 5 25 -2 17 0 28 5 25 5 -3 7 -12 4 -19 -3 -8 -1
-17 4 -20 6 -3 9 10 8 34 -1 22 0 40 3 40 3 0 6 11 6 25 0 14 -4 25 -9 25 -6
0 -1 7 10 16 10 8 13 13 6 9 -9 -5 -12 4 -9 32 1 21 6 39 10 41 16 5 19 1 8
-12 -8 -10 -9 -16 -1 -21 13 -8 12 -13 14 80 1 44 4 85 8 90 4 6 3 17 -2 25
-5 8 -4 22 2 34 8 15 8 21 0 24 -9 3 -9 9 -2 23 8 14 7 19 -2 20 -7 1 -2 5 12
9 17 5 19 8 8 9 -11 1 -18 9 -18 22 0 11 4 17 10 14 6 -3 7 1 4 9 -3 9 -11 13
-17 9 -6 -4 -7 -1 -3 6 5 7 15 10 25 7 15 -6 15 -5 -1 7 -13 10 -16 27 -13 80
1 37 -2 67 -7 67 -5 0 -8 10 -6 22 3 20 -1 22 -49 22 -29 1 -53 -3 -53 -7 0
-5 -5 -5 -12 -1 -17 11 -58 11 -58 1 0 -4 -8 -4 -17 0 -16 7 -26 8 -70 4 -7
-1 -13 -6 -13 -12 0 -8 4 -8 13 -1 10 8 16 5 26 -11 11 -18 11 -20 0 -9 -14
13 -33 17 -26 5 3 -5 -12 -8 -34 -9 -25 0 -36 3 -32 10 5 7 2 7 -8 0 -13 -10
-27 -13 -71 -15 -9 0 -18 -8 -21 -18 -2 -10 -11 -18 -20 -18 -9 0 -14 4 -11 9
3 5 9 6 13 4 4 -3 8 2 8 10 0 10 -4 11 -11 4 -12 -12 -29 -14 -22 -2 3 5 -1 9
-9 9 -11 0 -12 -4 -3 -14 6 -7 8 -16 4 -20 -3 -3 -6 -1 -6 6 0 7 -4 9 -10 6
-5 -3 -10 1 -10 9 0 11 -9 16 -26 16 -19 0 -25 4 -21 15 4 8 2 17 -4 20 -5 4
-8 1 -7 -6 2 -6 -2 -13 -8 -16 -8 -2 -11 25 -12 88 0 82 2 92 19 96 17 5 23
15 20 35 -1 11 22 5 31 -7 5 -6 8 -3 8 7 0 11 6 15 23 11 21 -4 21 -4 -3 12
-14 9 -17 14 -7 11 9 -3 17 0 17 6 0 7 7 3 16 -8 8 -10 13 -14 10 -7 -4 6 -2
14 4 18 5 3 10 1 10 -4 0 -6 5 -11 11 -11 5 0 8 4 5 8 -3 5 1 9 9 9 8 0 12 -4
9 -9 -8 -12 10 -10 24 4 9 9 12 9 12 -1 0 -11 3 -11 17 0 14 12 15 12 9 0 -7
-10 -3 -12 15 -7 20 6 21 5 6 -4 -9 -6 -22 -8 -27 -5 -6 3 -10 1 -10 -6 0 -7
13 -10 35 -7 19 2 35 1 35 -2 0 -3 12 -6 27 -6 18 1 28 -4 28 -14 0 -11 12
-15 46 -15 27 0 45 -4 43 -10 -3 -6 5 -16 17 -23 12 -8 18 -9 14 -3 -3 6 1 11
9 11 9 0 16 -5 16 -12 0 -6 3 -8 6 -5 4 4 2 13 -5 20 -9 12 -5 16 20 21 28 5
30 8 18 23 -12 14 -12 16 0 8 11 -6 13 -3 9 13 -4 12 -2 22 3 22 5 0 6 12 3
27 -6 22 -4 25 10 20 19 -7 22 8 4 17 -7 4 -3 4 8 2 20 -3 21 -1 14 25 -5 16
-5 31 0 34 5 3 7 12 3 20 -3 9 1 15 8 15 10 0 11 2 2 8 -7 4 -11 16 -9 27 3
20 12 23 24 9 4 -4 2 -4 -4 -1 -6 3 -11 0 -11 -8 0 -11 4 -12 13 -4 14 11 8
39 -8 39 -5 0 -3 7 6 15 8 9 13 22 9 30 -3 9 1 23 8 32 12 14 12 16 -1 8 -12
-7 -13 -6 -3 6 10 12 10 18 1 27 -6 6 -9 15 -5 19 4 3 14 -2 23 -13 15 -17 15
-17 0 8 -8 14 -17 38 -20 52 -4 23 -3 24 15 13 10 -6 15 -13 9 -15 -5 -2 -10
-8 -10 -14 0 -6 6 -5 15 2 10 8 12 17 7 22 -5 5 -6 27 -2 49 4 22 3 42 -2 45
-5 3 -4 12 3 20 6 8 8 14 4 14 -4 0 -2 6 4 14 9 11 9 16 0 21 -8 6 -7 10 2 16
9 5 10 9 2 9 -11 0 -10 60 2 80 3 5 1 10 -6 10 -8 0 -8 4 -1 13 7 8 6 19 -5
37 -10 18 -13 19 -8 5 4 -15 -1 -12 -20 10 -15 17 -24 25 -21 19 3 -7 -1 -17
-8 -23 -12 -10 -14 -8 -9 11 4 18 3 20 -6 8 -7 -10 -11 -11 -11 -2 0 6 -5 12
-11 12 -5 0 -8 -4 -5 -8 2 -4 -4 -8 -14 -8 -10 0 -16 4 -14 8 7 11 -8 10 -26
-2 -8 -5 -19 -5 -25 -1 -5 4 -17 7 -25 6 -8 -1 -23 3 -34 8 -11 6 -16 5 -13 0
11 -17 -146 -10 -161 7 -8 8 -11 9 -7 3 6 -13 0 -15 -30 -15 -40 0 -47 3 -41
18 3 8 2 12 -4 9 -6 -3 -10 -12 -10 -18 0 -8 -18 -12 -54 -11 -59 1 -80 9 -69
27 3 7 -3 4 -15 -7 -13 -11 -30 -16 -42 -13 -11 3 -20 0 -21 -6 0 -7 -4 -3 -9
8 -8 18 -9 19 -9 1 -1 -12 -6 -16 -17 -12 -9 3 -18 6 -21 6 -3 0 0 7 7 15 17
21 10 18 -20 -6z m-630 -803 c0 -2 -7 -7 -16 -10 -8 -3 -12 -2 -9 4 6 10 25
14 25 6z m1135 -45 c-9 -8 -36 -10 -30 -2 2 4 11 8 20 8 8 0 13 -3 10 -6z m85
-25 c0 -3 -4 -8 -10 -11 -5 -3 -10 -1 -10 4 0 6 5 11 10 11 6 0 10 -2 10 -4z
m-1225 -66 c-3 -5 -12 -10 -18 -10 -7 0 -6 4 3 10 19 12 23 12 15 0z m1316
-103 c-6 -8 -7 -18 -3 -23 4 -4 -1 -2 -10 5 -19 14 -25 26 -8 16 6 -3 10 -1
10 4 0 6 5 11 11 11 8 0 9 -4 0 -13z m-376 -55 c-3 -3 -11 0 -18 7 -9 10 -8
11 6 5 10 -3 15 -9 12 -12z m379 -400 c3 -5 -1 -9 -9 -9 -8 0 -12 4 -9 9 3 4
7 8 9 8 2 0 6 -4 9 -8z m-1 -37 c-3 -9 -8 -14 -10 -11 -3 3 -2 9 2 15 9 16 15
13 8 -4z m-193 -287 c0 -11 -12 -10 -30 2 -12 7 -10 9 8 7 12 0 22 -5 22 -9z
m-1123 -228 c1 -11 -2 -20 -5 -20 -4 0 -8 9 -9 20 -1 11 2 20 5 20 4 0 8 -9 9
-20z"/>
<path d="M1430 2526 c0 -2 7 -7 16 -10 8 -3 12 -2 9 4 -6 10 -25 14 -25 6z"/>
<path d="M728 2503 c-10 -2 -18 -9 -18 -15 0 -7 -4 -7 -13 1 -10 8 -14 7 -14
-3 0 -18 35 -12 56 9 8 8 13 14 11 14 -3 -1 -13 -3 -22 -6z"/>
<path d="M1875 1740 c3 -5 8 -10 11 -10 2 0 4 5 4 10 0 6 -5 10 -11 10 -5 0
-7 -4 -4 -10z"/>
<path d="M1327 1629 c7 -7 15 -10 18 -7 3 3 -2 9 -12 12 -14 6 -15 5 -6 -5z"/>
<path d="M1918 1403 c7 -3 16 -2 19 1 4 3 -2 6 -13 5 -11 0 -14 -3 -6 -6z"/>
<path d="M533 541 c1 -21 4 -37 6 -35 9 9 9 64 0 69 -5 3 -8 -12 -6 -34z"/>
</g>
</svg>
